# xmcd
#
# Track frame offsets: 
#        182
#        22455
#        49360
#        61965
#        80827
#        100762
#        126365
#        142827
#        162467
#        180522
#        211042
#        220760
#
# Disc length: 3254 seconds
#
# Revision: 15
# Processed by: cddbd v1.5.2PL0 Copyright (c) Steve Scherf et al.
# Submitted via: ExactAudioCopy v1.0b3
#
DISCID=af0cb40c
DTITLE=Alison Krauss - Alison Krauss and Union Nation Live CD2
DYEAR=2002
DGENRE=Bluegrass
TTITLE0=Monkey Let The Hogs Out (A Tribute To Peador O'Donnell)
TTITLE1=The Boy Who Wouldn't Hoe Corn
TTITLE2=Take Me For Longing
TTITLE3=I Am A Man Of Constant Sorrow
TTITLE4=Maybe
TTITLE5=We Hide and Seek
TTITLE6=But You Know I Love You
TTITLE7=When You Say Nothing At All
TTITLE8=New Favorite
TTITLE9=Oh, Atlanta
TTITLE10=Down To The River To Pray
TTITLE11=There Is A Reason
EXTD=YEAR: 2002
EXTT0=
EXTT1=
EXTT2=
EXTT3=
EXTT4=
EXTT5=
EXTT6=
EXTT7=
EXTT8=
EXTT9=
EXTT10=
EXTT11=
PLAYORDER=
